<mxfile host="Electron" agent="Mozilla/5.0 (Windows NT 10.0; Win64; x64) AppleWebKit/537.36 (KHTML, like Gecko) draw.io/26.0.9 Chrome/128.0.6613.186 Electron/32.2.5 Safari/537.36" version="26.0.9">
  <diagram name="Seite-1" id="9RsP7KBEp3KHUQag6baq">
    <mxGraphModel dx="4078" dy="5095" grid="1" gridSize="10" guides="1" tooltips="1" connect="1" arrows="1" fold="1" page="1" pageScale="1" pageWidth="827" pageHeight="1169" math="0" shadow="0">
      <root>
        <mxCell id="0" />
        <mxCell id="1" parent="0" />
        <mxCell id="Od_H-WSa5P0MM_dKKlmE-98" style="edgeStyle=orthogonalEdgeStyle;rounded=0;orthogonalLoop=1;jettySize=auto;html=1;exitX=0.25;exitY=1;exitDx=0;exitDy=0;entryX=0.5;entryY=0;entryDx=0;entryDy=0;curved=1;endArrow=none;startFill=0;" edge="1" parent="1" source="Od_H-WSa5P0MM_dKKlmE-1" target="Od_H-WSa5P0MM_dKKlmE-97">
          <mxGeometry relative="1" as="geometry" />
        </mxCell>
        <mxCell id="Od_H-WSa5P0MM_dKKlmE-1" value="REZEPT" style="whiteSpace=wrap;html=1;align=center;" vertex="1" parent="1">
          <mxGeometry x="-1400" y="-1040" width="100" height="40" as="geometry" />
        </mxCell>
        <mxCell id="Od_H-WSa5P0MM_dKKlmE-155" style="edgeStyle=orthogonalEdgeStyle;rounded=0;orthogonalLoop=1;jettySize=auto;html=1;exitX=0.75;exitY=1;exitDx=0;exitDy=0;entryX=0;entryY=0;entryDx=0;entryDy=0;endArrow=none;startFill=0;curved=1;" edge="1" parent="1" source="Od_H-WSa5P0MM_dKKlmE-2" target="Od_H-WSa5P0MM_dKKlmE-154">
          <mxGeometry relative="1" as="geometry" />
        </mxCell>
        <mxCell id="Od_H-WSa5P0MM_dKKlmE-2" value="ZUTAT_&lt;br&gt;NAEHRWERT" style="whiteSpace=wrap;html=1;align=center;" vertex="1" parent="1">
          <mxGeometry x="-440" y="-1040" width="100" height="40" as="geometry" />
        </mxCell>
        <mxCell id="Od_H-WSa5P0MM_dKKlmE-3" value="ERNAEHRUNGS&lt;br&gt;KATEGORIE" style="whiteSpace=wrap;html=1;align=center;" vertex="1" parent="1">
          <mxGeometry x="-1920" y="-1040" width="100" height="40" as="geometry" />
        </mxCell>
        <mxCell id="Od_H-WSa5P0MM_dKKlmE-68" style="edgeStyle=orthogonalEdgeStyle;rounded=0;orthogonalLoop=1;jettySize=auto;html=1;exitX=1;exitY=1;exitDx=0;exitDy=0;entryX=0;entryY=0.5;entryDx=0;entryDy=0;curved=1;endArrow=none;startFill=0;" edge="1" parent="1" source="Od_H-WSa5P0MM_dKKlmE-4" target="Od_H-WSa5P0MM_dKKlmE-62">
          <mxGeometry relative="1" as="geometry" />
        </mxCell>
        <mxCell id="Od_H-WSa5P0MM_dKKlmE-78" style="edgeStyle=orthogonalEdgeStyle;rounded=0;orthogonalLoop=1;jettySize=auto;html=1;exitX=0.5;exitY=1;exitDx=0;exitDy=0;entryX=0.5;entryY=0;entryDx=0;entryDy=0;endArrow=none;startFill=0;" edge="1" parent="1" source="Od_H-WSa5P0MM_dKKlmE-4" target="Od_H-WSa5P0MM_dKKlmE-77">
          <mxGeometry relative="1" as="geometry" />
        </mxCell>
        <mxCell id="Od_H-WSa5P0MM_dKKlmE-168" style="edgeStyle=orthogonalEdgeStyle;rounded=0;orthogonalLoop=1;jettySize=auto;html=1;exitX=1;exitY=0.75;exitDx=0;exitDy=0;entryX=0;entryY=0.5;entryDx=0;entryDy=0;endArrow=none;startFill=0;curved=1;" edge="1" parent="1" source="Od_H-WSa5P0MM_dKKlmE-4" target="Od_H-WSa5P0MM_dKKlmE-166">
          <mxGeometry relative="1" as="geometry">
            <Array as="points">
              <mxPoint x="-620" y="-720" />
              <mxPoint x="-620" y="-580" />
            </Array>
          </mxGeometry>
        </mxCell>
        <mxCell id="Od_H-WSa5P0MM_dKKlmE-4" value="ZUTAT" style="whiteSpace=wrap;html=1;align=center;" vertex="1" parent="1">
          <mxGeometry x="-927" y="-750" width="100" height="40" as="geometry" />
        </mxCell>
        <mxCell id="Od_H-WSa5P0MM_dKKlmE-85" style="edgeStyle=orthogonalEdgeStyle;rounded=0;orthogonalLoop=1;jettySize=auto;html=1;exitX=0.5;exitY=1;exitDx=0;exitDy=0;entryX=0.5;entryY=0;entryDx=0;entryDy=0;endArrow=none;startFill=0;" edge="1" parent="1" source="Od_H-WSa5P0MM_dKKlmE-5" target="Od_H-WSa5P0MM_dKKlmE-82">
          <mxGeometry relative="1" as="geometry" />
        </mxCell>
        <mxCell id="Od_H-WSa5P0MM_dKKlmE-5" value="ALLERGEN" style="whiteSpace=wrap;html=1;align=center;" vertex="1" parent="1">
          <mxGeometry x="-927" y="-442" width="100" height="40" as="geometry" />
        </mxCell>
        <mxCell id="Od_H-WSa5P0MM_dKKlmE-177" style="edgeStyle=orthogonalEdgeStyle;rounded=0;orthogonalLoop=1;jettySize=auto;html=1;exitX=0;exitY=0.5;exitDx=0;exitDy=0;entryX=1;entryY=0.5;entryDx=0;entryDy=0;endArrow=none;startFill=0;" edge="1" parent="1" source="Od_H-WSa5P0MM_dKKlmE-6" target="Od_H-WSa5P0MM_dKKlmE-174">
          <mxGeometry relative="1" as="geometry" />
        </mxCell>
        <mxCell id="Od_H-WSa5P0MM_dKKlmE-6" value="LIEFERANT" style="whiteSpace=wrap;html=1;align=center;" vertex="1" parent="1">
          <mxGeometry x="-445" y="-360" width="100" height="40" as="geometry" />
        </mxCell>
        <mxCell id="Od_H-WSa5P0MM_dKKlmE-8" style="edgeStyle=orthogonalEdgeStyle;rounded=0;orthogonalLoop=1;jettySize=auto;html=1;exitX=0.5;exitY=1;exitDx=0;exitDy=0;" edge="1" parent="1" source="Od_H-WSa5P0MM_dKKlmE-4" target="Od_H-WSa5P0MM_dKKlmE-4">
          <mxGeometry relative="1" as="geometry" />
        </mxCell>
        <mxCell id="Od_H-WSa5P0MM_dKKlmE-84" style="edgeStyle=orthogonalEdgeStyle;rounded=0;orthogonalLoop=1;jettySize=auto;html=1;exitX=0.5;exitY=1;exitDx=0;exitDy=0;endArrow=none;startFill=0;" edge="1" parent="1" source="Od_H-WSa5P0MM_dKKlmE-9" target="Od_H-WSa5P0MM_dKKlmE-83">
          <mxGeometry relative="1" as="geometry" />
        </mxCell>
        <mxCell id="Od_H-WSa5P0MM_dKKlmE-90" style="edgeStyle=orthogonalEdgeStyle;rounded=0;orthogonalLoop=1;jettySize=auto;html=1;exitX=1;exitY=0.5;exitDx=0;exitDy=0;entryX=0.5;entryY=1;entryDx=0;entryDy=0;endArrow=none;startFill=0;curved=1;" edge="1" parent="1" source="Od_H-WSa5P0MM_dKKlmE-9" target="Od_H-WSa5P0MM_dKKlmE-89">
          <mxGeometry relative="1" as="geometry" />
        </mxCell>
        <mxCell id="Od_H-WSa5P0MM_dKKlmE-126" style="edgeStyle=orthogonalEdgeStyle;rounded=0;orthogonalLoop=1;jettySize=auto;html=1;exitX=0.75;exitY=1;exitDx=0;exitDy=0;entryX=0.5;entryY=0;entryDx=0;entryDy=0;endArrow=none;startFill=0;curved=1;" edge="1" parent="1" source="Od_H-WSa5P0MM_dKKlmE-9" target="Od_H-WSa5P0MM_dKKlmE-114">
          <mxGeometry relative="1" as="geometry">
            <Array as="points">
              <mxPoint x="-1325" y="-380" />
              <mxPoint x="-1270" y="-380" />
            </Array>
          </mxGeometry>
        </mxCell>
        <mxCell id="Od_H-WSa5P0MM_dKKlmE-127" style="edgeStyle=orthogonalEdgeStyle;rounded=0;orthogonalLoop=1;jettySize=auto;html=1;exitX=0.25;exitY=1;exitDx=0;exitDy=0;entryX=1;entryY=0.5;entryDx=0;entryDy=0;endArrow=none;startFill=0;curved=1;" edge="1" parent="1" source="Od_H-WSa5P0MM_dKKlmE-9" target="Od_H-WSa5P0MM_dKKlmE-124">
          <mxGeometry relative="1" as="geometry" />
        </mxCell>
        <mxCell id="Od_H-WSa5P0MM_dKKlmE-9" value="BESTELLUNG" style="whiteSpace=wrap;html=1;align=center;" vertex="1" parent="1">
          <mxGeometry x="-1400" y="-440" width="100" height="40" as="geometry" />
        </mxCell>
        <mxCell id="Od_H-WSa5P0MM_dKKlmE-125" style="edgeStyle=orthogonalEdgeStyle;rounded=0;orthogonalLoop=1;jettySize=auto;html=1;exitX=1;exitY=0.5;exitDx=0;exitDy=0;entryX=0;entryY=0.5;entryDx=0;entryDy=0;endArrow=none;startFill=0;" edge="1" parent="1" source="Od_H-WSa5P0MM_dKKlmE-10" target="Od_H-WSa5P0MM_dKKlmE-124">
          <mxGeometry relative="1" as="geometry" />
        </mxCell>
        <mxCell id="Od_H-WSa5P0MM_dKKlmE-144" style="edgeStyle=orthogonalEdgeStyle;rounded=0;orthogonalLoop=1;jettySize=auto;html=1;exitX=0.5;exitY=1;exitDx=0;exitDy=0;endArrow=none;startFill=0;" edge="1" parent="1" source="Od_H-WSa5P0MM_dKKlmE-10" target="Od_H-WSa5P0MM_dKKlmE-140">
          <mxGeometry relative="1" as="geometry" />
        </mxCell>
        <mxCell id="Od_H-WSa5P0MM_dKKlmE-10" value="RECHNUNG" style="whiteSpace=wrap;html=1;align=center;" vertex="1" parent="1">
          <mxGeometry x="-1920" y="-320" width="100" height="40" as="geometry" />
        </mxCell>
        <mxCell id="Od_H-WSa5P0MM_dKKlmE-190" style="edgeStyle=orthogonalEdgeStyle;rounded=0;orthogonalLoop=1;jettySize=auto;html=1;exitX=0.5;exitY=1;exitDx=0;exitDy=0;entryX=0.5;entryY=0;entryDx=0;entryDy=0;endArrow=none;startFill=0;curved=1;" edge="1" parent="1" source="Od_H-WSa5P0MM_dKKlmE-11" target="Od_H-WSa5P0MM_dKKlmE-182">
          <mxGeometry relative="1" as="geometry" />
        </mxCell>
        <mxCell id="Od_H-WSa5P0MM_dKKlmE-208" style="edgeStyle=orthogonalEdgeStyle;rounded=0;orthogonalLoop=1;jettySize=auto;html=1;exitX=0.25;exitY=1;exitDx=0;exitDy=0;entryX=0.5;entryY=0;entryDx=0;entryDy=0;curved=1;endArrow=none;startFill=0;" edge="1" parent="1" source="Od_H-WSa5P0MM_dKKlmE-11" target="Od_H-WSa5P0MM_dKKlmE-207">
          <mxGeometry relative="1" as="geometry" />
        </mxCell>
        <mxCell id="Od_H-WSa5P0MM_dKKlmE-11" value="KUNDE" style="whiteSpace=wrap;html=1;align=center;" vertex="1" parent="1">
          <mxGeometry x="-1160" y="-40" width="100" height="40" as="geometry" />
        </mxCell>
        <mxCell id="Od_H-WSa5P0MM_dKKlmE-12" value="zugeordnet" style="shape=rhombus;perimeter=rhombusPerimeter;whiteSpace=wrap;html=1;align=center;" vertex="1" parent="1">
          <mxGeometry x="-1680" y="-1050" width="120" height="60" as="geometry" />
        </mxCell>
        <mxCell id="Od_H-WSa5P0MM_dKKlmE-63" style="edgeStyle=orthogonalEdgeStyle;rounded=0;orthogonalLoop=1;jettySize=auto;html=1;exitX=0;exitY=0.5;exitDx=0;exitDy=0;entryX=1;entryY=0.5;entryDx=0;entryDy=0;curved=1;endArrow=none;startFill=0;" edge="1" parent="1" source="Od_H-WSa5P0MM_dKKlmE-13" target="Od_H-WSa5P0MM_dKKlmE-4">
          <mxGeometry relative="1" as="geometry" />
        </mxCell>
        <mxCell id="Od_H-WSa5P0MM_dKKlmE-145" style="edgeStyle=orthogonalEdgeStyle;rounded=0;orthogonalLoop=1;jettySize=auto;html=1;exitX=1;exitY=0.5;exitDx=0;exitDy=0;entryX=0;entryY=0.5;entryDx=0;entryDy=0;endArrow=none;startFill=0;curved=1;" edge="1" parent="1" source="Od_H-WSa5P0MM_dKKlmE-13" target="Od_H-WSa5P0MM_dKKlmE-2">
          <mxGeometry relative="1" as="geometry" />
        </mxCell>
        <mxCell id="Od_H-WSa5P0MM_dKKlmE-13" value="enthält" style="shape=rhombus;perimeter=rhombusPerimeter;whiteSpace=wrap;html=1;align=center;" vertex="1" parent="1">
          <mxGeometry x="-710" y="-890" width="120" height="60" as="geometry" />
        </mxCell>
        <mxCell id="Od_H-WSa5P0MM_dKKlmE-14" value="" style="endArrow=none;html=1;rounded=0;" edge="1" parent="1">
          <mxGeometry relative="1" as="geometry">
            <mxPoint x="-1560" y="-1020.59" as="sourcePoint" />
            <mxPoint x="-1400" y="-1020.59" as="targetPoint" />
          </mxGeometry>
        </mxCell>
        <mxCell id="Od_H-WSa5P0MM_dKKlmE-15" value="" style="endArrow=none;html=1;rounded=0;" edge="1" parent="1">
          <mxGeometry relative="1" as="geometry">
            <mxPoint x="-1820" y="-1020.59" as="sourcePoint" />
            <mxPoint x="-1680" y="-1021" as="targetPoint" />
            <Array as="points">
              <mxPoint x="-1750" y="-1020" />
            </Array>
          </mxGeometry>
        </mxCell>
        <mxCell id="Od_H-WSa5P0MM_dKKlmE-16" value="n" style="text;html=1;align=center;verticalAlign=middle;resizable=0;points=[];autosize=1;strokeColor=none;fillColor=none;" vertex="1" parent="1">
          <mxGeometry x="-1820" y="-1050" width="30" height="30" as="geometry" />
        </mxCell>
        <mxCell id="Od_H-WSa5P0MM_dKKlmE-17" value="m" style="text;html=1;align=center;verticalAlign=middle;resizable=0;points=[];autosize=1;strokeColor=none;fillColor=none;" vertex="1" parent="1">
          <mxGeometry x="-1430" y="-1050" width="30" height="30" as="geometry" />
        </mxCell>
        <mxCell id="Od_H-WSa5P0MM_dKKlmE-18" value="NAME" style="ellipse;whiteSpace=wrap;html=1;align=center;" vertex="1" parent="1">
          <mxGeometry x="-2040" y="-1120" width="100" height="40" as="geometry" />
        </mxCell>
        <mxCell id="Od_H-WSa5P0MM_dKKlmE-20" style="edgeStyle=orthogonalEdgeStyle;rounded=0;orthogonalLoop=1;jettySize=auto;html=1;exitX=1;exitY=0.5;exitDx=0;exitDy=0;entryX=0;entryY=0.5;entryDx=0;entryDy=0;startArrow=none;startFill=0;strokeColor=default;curved=1;endArrow=none;" edge="1" parent="1" source="Od_H-WSa5P0MM_dKKlmE-19" target="Od_H-WSa5P0MM_dKKlmE-3">
          <mxGeometry relative="1" as="geometry" />
        </mxCell>
        <mxCell id="Od_H-WSa5P0MM_dKKlmE-19" value="KATEGORIEID" style="ellipse;whiteSpace=wrap;html=1;align=center;fontStyle=4;" vertex="1" parent="1">
          <mxGeometry x="-2100" y="-1040" width="100" height="40" as="geometry" />
        </mxCell>
        <mxCell id="Od_H-WSa5P0MM_dKKlmE-21" style="edgeStyle=orthogonalEdgeStyle;rounded=0;orthogonalLoop=1;jettySize=auto;html=1;exitX=1;exitY=0.5;exitDx=0;exitDy=0;entryX=0.5;entryY=0;entryDx=0;entryDy=0;startArrow=none;startFill=0;strokeColor=default;curved=1;endArrow=none;" edge="1" parent="1" source="Od_H-WSa5P0MM_dKKlmE-18" target="Od_H-WSa5P0MM_dKKlmE-3">
          <mxGeometry relative="1" as="geometry">
            <mxPoint x="-1990" y="-1010" as="sourcePoint" />
            <mxPoint x="-1910" y="-1010" as="targetPoint" />
            <Array as="points">
              <mxPoint x="-1910" y="-1100" />
              <mxPoint x="-1910" y="-1040" />
            </Array>
          </mxGeometry>
        </mxCell>
        <mxCell id="Od_H-WSa5P0MM_dKKlmE-22" value="PERSOENLINF" style="whiteSpace=wrap;html=1;align=center;" vertex="1" parent="1">
          <mxGeometry x="-930" y="220" width="100" height="40" as="geometry" />
        </mxCell>
        <mxCell id="Od_H-WSa5P0MM_dKKlmE-252" style="edgeStyle=orthogonalEdgeStyle;rounded=0;orthogonalLoop=1;jettySize=auto;html=1;exitX=0.75;exitY=1;exitDx=0;exitDy=0;entryX=0.5;entryY=0;entryDx=0;entryDy=0;endArrow=none;endFill=1;startFill=0;curved=1;" edge="1" parent="1" source="Od_H-WSa5P0MM_dKKlmE-23" target="Od_H-WSa5P0MM_dKKlmE-251">
          <mxGeometry relative="1" as="geometry" />
        </mxCell>
        <mxCell id="Od_H-WSa5P0MM_dKKlmE-23" value="MITARBEITER" style="whiteSpace=wrap;html=1;align=center;" vertex="1" parent="1">
          <mxGeometry x="-1160" y="510" width="100" height="40" as="geometry" />
        </mxCell>
        <mxCell id="Od_H-WSa5P0MM_dKKlmE-33" style="edgeStyle=orthogonalEdgeStyle;rounded=0;orthogonalLoop=1;jettySize=auto;html=1;exitX=1;exitY=0.5;exitDx=0;exitDy=0;entryX=0;entryY=0;entryDx=0;entryDy=0;endArrow=none;startFill=0;strokeColor=default;curved=1;" edge="1" parent="1" source="Od_H-WSa5P0MM_dKKlmE-24" target="Od_H-WSa5P0MM_dKKlmE-1">
          <mxGeometry relative="1" as="geometry" />
        </mxCell>
        <mxCell id="Od_H-WSa5P0MM_dKKlmE-24" value="ZUBEREI&lt;br&gt;TUNGSZEIT" style="ellipse;whiteSpace=wrap;html=1;align=center;" vertex="1" parent="1">
          <mxGeometry x="-1580" y="-1110" width="100" height="40" as="geometry" />
        </mxCell>
        <mxCell id="Od_H-WSa5P0MM_dKKlmE-25" value="PORTIONEN" style="ellipse;whiteSpace=wrap;html=1;align=center;" vertex="1" parent="1">
          <mxGeometry x="-1540" y="-1160" width="100" height="40" as="geometry" />
        </mxCell>
        <mxCell id="Od_H-WSa5P0MM_dKKlmE-26" value="NAME" style="ellipse;whiteSpace=wrap;html=1;align=center;" vertex="1" parent="1">
          <mxGeometry x="-1360" y="-1209" width="100" height="40" as="geometry" />
        </mxCell>
        <mxCell id="Od_H-WSa5P0MM_dKKlmE-27" value="ANLEITUNG" style="ellipse;whiteSpace=wrap;html=1;align=center;" vertex="1" parent="1">
          <mxGeometry x="-1465" y="-1200" width="100" height="40" as="geometry" />
        </mxCell>
        <mxCell id="Od_H-WSa5P0MM_dKKlmE-37" style="edgeStyle=orthogonalEdgeStyle;rounded=0;orthogonalLoop=1;jettySize=auto;html=1;exitX=0;exitY=1;exitDx=0;exitDy=0;entryX=1;entryY=0;entryDx=0;entryDy=0;endArrow=none;startFill=0;curved=1;" edge="1" parent="1" source="Od_H-WSa5P0MM_dKKlmE-28" target="Od_H-WSa5P0MM_dKKlmE-1">
          <mxGeometry relative="1" as="geometry" />
        </mxCell>
        <mxCell id="Od_H-WSa5P0MM_dKKlmE-28" value="ERSTELLT_AM" style="ellipse;whiteSpace=wrap;html=1;align=center;" vertex="1" parent="1">
          <mxGeometry x="-1260" y="-1190" width="100" height="40" as="geometry" />
        </mxCell>
        <mxCell id="Od_H-WSa5P0MM_dKKlmE-38" style="edgeStyle=orthogonalEdgeStyle;rounded=0;orthogonalLoop=1;jettySize=auto;html=1;exitX=0;exitY=1;exitDx=0;exitDy=0;entryX=1;entryY=0.25;entryDx=0;entryDy=0;curved=1;endArrow=none;startFill=0;" edge="1" parent="1" source="Od_H-WSa5P0MM_dKKlmE-29" target="Od_H-WSa5P0MM_dKKlmE-1">
          <mxGeometry relative="1" as="geometry" />
        </mxCell>
        <mxCell id="Od_H-WSa5P0MM_dKKlmE-29" value="GEAENDERT_AM" style="ellipse;whiteSpace=wrap;html=1;align=center;" vertex="1" parent="1">
          <mxGeometry x="-1230" y="-1140" width="100" height="40" as="geometry" />
        </mxCell>
        <mxCell id="Od_H-WSa5P0MM_dKKlmE-39" style="edgeStyle=orthogonalEdgeStyle;rounded=0;orthogonalLoop=1;jettySize=auto;html=1;exitX=0;exitY=0.5;exitDx=0;exitDy=0;entryX=1;entryY=0.75;entryDx=0;entryDy=0;curved=1;endArrow=none;startFill=0;" edge="1" parent="1" source="Od_H-WSa5P0MM_dKKlmE-30" target="Od_H-WSa5P0MM_dKKlmE-1">
          <mxGeometry relative="1" as="geometry" />
        </mxCell>
        <mxCell id="Od_H-WSa5P0MM_dKKlmE-30" value="GEAENDERT_AM" style="ellipse;whiteSpace=wrap;html=1;align=center;" vertex="1" parent="1">
          <mxGeometry x="-1210" y="-1080" width="100" height="40" as="geometry" />
        </mxCell>
        <mxCell id="Od_H-WSa5P0MM_dKKlmE-41" style="edgeStyle=orthogonalEdgeStyle;rounded=0;orthogonalLoop=1;jettySize=auto;html=1;exitX=0;exitY=0.5;exitDx=0;exitDy=0;entryX=1;entryY=1;entryDx=0;entryDy=0;curved=1;endArrow=none;startFill=0;" edge="1" parent="1" source="Od_H-WSa5P0MM_dKKlmE-31" target="Od_H-WSa5P0MM_dKKlmE-1">
          <mxGeometry relative="1" as="geometry" />
        </mxCell>
        <mxCell id="Od_H-WSa5P0MM_dKKlmE-31" value="URHEBER" style="ellipse;whiteSpace=wrap;html=1;align=center;" vertex="1" parent="1">
          <mxGeometry x="-1220" y="-1020" width="100" height="40" as="geometry" />
        </mxCell>
        <mxCell id="Od_H-WSa5P0MM_dKKlmE-42" style="edgeStyle=orthogonalEdgeStyle;rounded=0;orthogonalLoop=1;jettySize=auto;html=1;exitX=0;exitY=0.5;exitDx=0;exitDy=0;entryX=0.75;entryY=1;entryDx=0;entryDy=0;curved=1;endArrow=none;startFill=0;" edge="1" parent="1" source="Od_H-WSa5P0MM_dKKlmE-32" target="Od_H-WSa5P0MM_dKKlmE-1">
          <mxGeometry relative="1" as="geometry" />
        </mxCell>
        <mxCell id="Od_H-WSa5P0MM_dKKlmE-32" value="REZEPTID" style="ellipse;whiteSpace=wrap;html=1;align=center;fontStyle=4;" vertex="1" parent="1">
          <mxGeometry x="-1270" y="-960" width="100" height="40" as="geometry" />
        </mxCell>
        <mxCell id="Od_H-WSa5P0MM_dKKlmE-34" style="edgeStyle=orthogonalEdgeStyle;rounded=0;orthogonalLoop=1;jettySize=auto;html=1;exitX=1;exitY=0.5;exitDx=0;exitDy=0;entryX=0.146;entryY=-0.01;entryDx=0;entryDy=0;entryPerimeter=0;endArrow=none;startFill=0;curved=1;" edge="1" parent="1" source="Od_H-WSa5P0MM_dKKlmE-25" target="Od_H-WSa5P0MM_dKKlmE-1">
          <mxGeometry relative="1" as="geometry" />
        </mxCell>
        <mxCell id="Od_H-WSa5P0MM_dKKlmE-35" style="edgeStyle=orthogonalEdgeStyle;rounded=0;orthogonalLoop=1;jettySize=auto;html=1;exitX=1;exitY=1;exitDx=0;exitDy=0;curved=1;endArrow=none;startFill=0;entryX=0.393;entryY=-0.04;entryDx=0;entryDy=0;entryPerimeter=0;" edge="1" parent="1" source="Od_H-WSa5P0MM_dKKlmE-27" target="Od_H-WSa5P0MM_dKKlmE-1">
          <mxGeometry relative="1" as="geometry">
            <mxPoint x="-1362" y="-1050" as="targetPoint" />
          </mxGeometry>
        </mxCell>
        <mxCell id="Od_H-WSa5P0MM_dKKlmE-36" style="edgeStyle=orthogonalEdgeStyle;rounded=0;orthogonalLoop=1;jettySize=auto;html=1;exitX=0.5;exitY=1;exitDx=0;exitDy=0;curved=1;endArrow=none;startFill=0;" edge="1" parent="1" source="Od_H-WSa5P0MM_dKKlmE-26">
          <mxGeometry relative="1" as="geometry">
            <mxPoint x="-1340" y="-1040" as="targetPoint" />
          </mxGeometry>
        </mxCell>
        <mxCell id="Od_H-WSa5P0MM_dKKlmE-44" style="edgeStyle=orthogonalEdgeStyle;rounded=0;orthogonalLoop=1;jettySize=auto;html=1;exitX=0.5;exitY=0;exitDx=0;exitDy=0;entryX=0.5;entryY=1;entryDx=0;entryDy=0;endArrow=none;startFill=0;curved=1;" edge="1" parent="1" source="Od_H-WSa5P0MM_dKKlmE-43" target="Od_H-WSa5P0MM_dKKlmE-1">
          <mxGeometry relative="1" as="geometry">
            <Array as="points">
              <mxPoint x="-1140" y="-890" />
              <mxPoint x="-1350" y="-890" />
            </Array>
          </mxGeometry>
        </mxCell>
        <mxCell id="Od_H-WSa5P0MM_dKKlmE-52" style="edgeStyle=orthogonalEdgeStyle;rounded=0;orthogonalLoop=1;jettySize=auto;html=1;exitX=0.5;exitY=1;exitDx=0;exitDy=0;entryX=0;entryY=0.5;entryDx=0;entryDy=0;curved=1;endArrow=none;startFill=0;" edge="1" parent="1" source="Od_H-WSa5P0MM_dKKlmE-43" target="Od_H-WSa5P0MM_dKKlmE-4">
          <mxGeometry relative="1" as="geometry" />
        </mxCell>
        <mxCell id="Od_H-WSa5P0MM_dKKlmE-43" value="Relationship" style="shape=rhombus;perimeter=rhombusPerimeter;whiteSpace=wrap;html=1;align=center;" vertex="1" parent="1">
          <mxGeometry x="-1200" y="-870" width="120" height="60" as="geometry" />
        </mxCell>
        <mxCell id="Od_H-WSa5P0MM_dKKlmE-46" value="m" style="text;html=1;align=center;verticalAlign=middle;resizable=0;points=[];autosize=1;strokeColor=none;fillColor=none;" vertex="1" parent="1">
          <mxGeometry x="-1375" y="-1002" width="30" height="30" as="geometry" />
        </mxCell>
        <mxCell id="Od_H-WSa5P0MM_dKKlmE-47" value="n" style="text;html=1;align=center;verticalAlign=middle;resizable=0;points=[];autosize=1;strokeColor=none;fillColor=none;" vertex="1" parent="1">
          <mxGeometry x="-1385" y="-472" width="30" height="30" as="geometry" />
        </mxCell>
        <mxCell id="Od_H-WSa5P0MM_dKKlmE-54" style="edgeStyle=orthogonalEdgeStyle;rounded=0;orthogonalLoop=1;jettySize=auto;html=1;exitX=1;exitY=0.5;exitDx=0;exitDy=0;entryX=0;entryY=0.5;entryDx=0;entryDy=0;curved=1;endArrow=none;startFill=0;" edge="1" parent="1" source="Od_H-WSa5P0MM_dKKlmE-48" target="Od_H-WSa5P0MM_dKKlmE-43">
          <mxGeometry relative="1" as="geometry" />
        </mxCell>
        <mxCell id="Od_H-WSa5P0MM_dKKlmE-48" value="ZUTATEN&lt;br&gt;MENGE" style="ellipse;whiteSpace=wrap;html=1;align=center;" vertex="1" parent="1">
          <mxGeometry x="-1320" y="-860" width="100" height="40" as="geometry" />
        </mxCell>
        <mxCell id="Od_H-WSa5P0MM_dKKlmE-53" value="n" style="text;html=1;align=center;verticalAlign=middle;resizable=0;points=[];autosize=1;strokeColor=none;fillColor=none;" vertex="1" parent="1">
          <mxGeometry x="-960" y="-762" width="30" height="30" as="geometry" />
        </mxCell>
        <mxCell id="Od_H-WSa5P0MM_dKKlmE-66" style="edgeStyle=orthogonalEdgeStyle;rounded=0;orthogonalLoop=1;jettySize=auto;html=1;exitX=1;exitY=0.5;exitDx=0;exitDy=0;entryX=0;entryY=0;entryDx=0;entryDy=0;curved=1;endArrow=none;startFill=0;" edge="1" parent="1" source="Od_H-WSa5P0MM_dKKlmE-56" target="Od_H-WSa5P0MM_dKKlmE-4">
          <mxGeometry relative="1" as="geometry" />
        </mxCell>
        <mxCell id="Od_H-WSa5P0MM_dKKlmE-56" value="GROESSE" style="ellipse;whiteSpace=wrap;html=1;align=center;" vertex="1" parent="1">
          <mxGeometry x="-1070" y="-820" width="100" height="40" as="geometry" />
        </mxCell>
        <mxCell id="Od_H-WSa5P0MM_dKKlmE-65" style="edgeStyle=orthogonalEdgeStyle;rounded=0;orthogonalLoop=1;jettySize=auto;html=1;exitX=0.5;exitY=1;exitDx=0;exitDy=0;entryX=0.5;entryY=0;entryDx=0;entryDy=0;curved=1;endArrow=none;startFill=0;" edge="1" parent="1" source="Od_H-WSa5P0MM_dKKlmE-57" target="Od_H-WSa5P0MM_dKKlmE-4">
          <mxGeometry relative="1" as="geometry" />
        </mxCell>
        <mxCell id="Od_H-WSa5P0MM_dKKlmE-57" value="LAGERMENGE" style="ellipse;whiteSpace=wrap;html=1;align=center;" vertex="1" parent="1">
          <mxGeometry x="-990" y="-870" width="100" height="40" as="geometry" />
        </mxCell>
        <mxCell id="Od_H-WSa5P0MM_dKKlmE-64" style="edgeStyle=orthogonalEdgeStyle;rounded=0;orthogonalLoop=1;jettySize=auto;html=1;exitX=0.5;exitY=1;exitDx=0;exitDy=0;entryX=1;entryY=0;entryDx=0;entryDy=0;curved=1;endArrow=none;startFill=0;" edge="1" parent="1" source="Od_H-WSa5P0MM_dKKlmE-58" target="Od_H-WSa5P0MM_dKKlmE-4">
          <mxGeometry relative="1" as="geometry" />
        </mxCell>
        <mxCell id="Od_H-WSa5P0MM_dKKlmE-58" value="PREIS_EINHEIT" style="ellipse;whiteSpace=wrap;html=1;align=center;" vertex="1" parent="1">
          <mxGeometry x="-870" y="-870" width="100" height="40" as="geometry" />
        </mxCell>
        <mxCell id="Od_H-WSa5P0MM_dKKlmE-69" style="edgeStyle=orthogonalEdgeStyle;rounded=0;orthogonalLoop=1;jettySize=auto;html=1;exitX=0;exitY=0;exitDx=0;exitDy=0;entryX=0.75;entryY=1;entryDx=0;entryDy=0;curved=1;endArrow=none;startFill=0;" edge="1" parent="1" source="Od_H-WSa5P0MM_dKKlmE-59" target="Od_H-WSa5P0MM_dKKlmE-4">
          <mxGeometry relative="1" as="geometry" />
        </mxCell>
        <mxCell id="Od_H-WSa5P0MM_dKKlmE-59" value="EINHEIT" style="ellipse;whiteSpace=wrap;html=1;align=center;" vertex="1" parent="1">
          <mxGeometry x="-845" y="-650" width="100" height="40" as="geometry" />
        </mxCell>
        <mxCell id="Od_H-WSa5P0MM_dKKlmE-75" style="edgeStyle=orthogonalEdgeStyle;rounded=0;orthogonalLoop=1;jettySize=auto;html=1;exitX=1;exitY=0.5;exitDx=0;exitDy=0;entryX=0;entryY=0.75;entryDx=0;entryDy=0;endArrow=none;startFill=0;curved=1;" edge="1" parent="1" source="Od_H-WSa5P0MM_dKKlmE-60" target="Od_H-WSa5P0MM_dKKlmE-4">
          <mxGeometry relative="1" as="geometry" />
        </mxCell>
        <mxCell id="Od_H-WSa5P0MM_dKKlmE-60" value="KATEGORIE" style="ellipse;whiteSpace=wrap;html=1;align=center;" vertex="1" parent="1">
          <mxGeometry x="-1095" y="-720" width="100" height="40" as="geometry" />
        </mxCell>
        <mxCell id="Od_H-WSa5P0MM_dKKlmE-62" value="ZUTATENID" style="ellipse;whiteSpace=wrap;html=1;align=center;fontStyle=4;" vertex="1" parent="1">
          <mxGeometry x="-770" y="-690" width="100" height="40" as="geometry" />
        </mxCell>
        <mxCell id="Od_H-WSa5P0MM_dKKlmE-76" style="edgeStyle=orthogonalEdgeStyle;rounded=0;orthogonalLoop=1;jettySize=auto;html=1;exitX=1;exitY=0;exitDx=0;exitDy=0;entryX=0.25;entryY=1;entryDx=0;entryDy=0;endArrow=none;startFill=0;curved=1;" edge="1" parent="1" source="Od_H-WSa5P0MM_dKKlmE-73" target="Od_H-WSa5P0MM_dKKlmE-4">
          <mxGeometry relative="1" as="geometry" />
        </mxCell>
        <mxCell id="Od_H-WSa5P0MM_dKKlmE-73" value="NAMEN" style="ellipse;whiteSpace=wrap;html=1;align=center;" vertex="1" parent="1">
          <mxGeometry x="-990" y="-650" width="100" height="40" as="geometry" />
        </mxCell>
        <mxCell id="Od_H-WSa5P0MM_dKKlmE-79" style="edgeStyle=orthogonalEdgeStyle;rounded=0;orthogonalLoop=1;jettySize=auto;html=1;exitX=0.5;exitY=1;exitDx=0;exitDy=0;entryX=0.5;entryY=0;entryDx=0;entryDy=0;endArrow=none;startFill=0;" edge="1" parent="1" source="Od_H-WSa5P0MM_dKKlmE-77" target="Od_H-WSa5P0MM_dKKlmE-5">
          <mxGeometry relative="1" as="geometry" />
        </mxCell>
        <mxCell id="Od_H-WSa5P0MM_dKKlmE-77" value="Relationship" style="shape=rhombus;perimeter=rhombusPerimeter;whiteSpace=wrap;html=1;align=center;" vertex="1" parent="1">
          <mxGeometry x="-937" y="-600" width="120" height="60" as="geometry" />
        </mxCell>
        <mxCell id="Od_H-WSa5P0MM_dKKlmE-95" style="edgeStyle=orthogonalEdgeStyle;rounded=0;orthogonalLoop=1;jettySize=auto;html=1;exitX=0;exitY=0.5;exitDx=0;exitDy=0;entryX=1;entryY=0.25;entryDx=0;entryDy=0;endArrow=none;startFill=0;curved=1;" edge="1" parent="1" source="Od_H-WSa5P0MM_dKKlmE-80" target="Od_H-WSa5P0MM_dKKlmE-5">
          <mxGeometry relative="1" as="geometry" />
        </mxCell>
        <mxCell id="Od_H-WSa5P0MM_dKKlmE-80" value="NAMEN" style="ellipse;whiteSpace=wrap;html=1;align=center;" vertex="1" parent="1">
          <mxGeometry x="-790" y="-500" width="100" height="40" as="geometry" />
        </mxCell>
        <mxCell id="Od_H-WSa5P0MM_dKKlmE-96" style="edgeStyle=orthogonalEdgeStyle;rounded=0;orthogonalLoop=1;jettySize=auto;html=1;exitX=0;exitY=0.5;exitDx=0;exitDy=0;entryX=1;entryY=0.75;entryDx=0;entryDy=0;endArrow=none;startFill=0;curved=1;" edge="1" parent="1" source="Od_H-WSa5P0MM_dKKlmE-81" target="Od_H-WSa5P0MM_dKKlmE-5">
          <mxGeometry relative="1" as="geometry" />
        </mxCell>
        <mxCell id="Od_H-WSa5P0MM_dKKlmE-81" value="ALLERGENID" style="ellipse;whiteSpace=wrap;html=1;align=center;fontStyle=4;" vertex="1" parent="1">
          <mxGeometry x="-790" y="-410" width="100" height="40" as="geometry" />
        </mxCell>
        <mxCell id="Od_H-WSa5P0MM_dKKlmE-87" style="edgeStyle=orthogonalEdgeStyle;rounded=0;orthogonalLoop=1;jettySize=auto;html=1;exitX=0.5;exitY=1;exitDx=0;exitDy=0;entryX=1;entryY=0.5;entryDx=0;entryDy=0;curved=1;endArrow=none;startFill=0;" edge="1" parent="1" source="Od_H-WSa5P0MM_dKKlmE-82" target="Od_H-WSa5P0MM_dKKlmE-11">
          <mxGeometry relative="1" as="geometry" />
        </mxCell>
        <mxCell id="Od_H-WSa5P0MM_dKKlmE-82" value="Relationship" style="shape=rhombus;perimeter=rhombusPerimeter;whiteSpace=wrap;html=1;align=center;" vertex="1" parent="1">
          <mxGeometry x="-937" y="-290" width="120" height="60" as="geometry" />
        </mxCell>
        <mxCell id="Od_H-WSa5P0MM_dKKlmE-86" style="edgeStyle=orthogonalEdgeStyle;rounded=0;orthogonalLoop=1;jettySize=auto;html=1;exitX=0.5;exitY=1;exitDx=0;exitDy=0;entryX=0;entryY=0.5;entryDx=0;entryDy=0;curved=1;endArrow=none;startFill=0;" edge="1" parent="1" source="Od_H-WSa5P0MM_dKKlmE-83" target="Od_H-WSa5P0MM_dKKlmE-11">
          <mxGeometry relative="1" as="geometry" />
        </mxCell>
        <mxCell id="Od_H-WSa5P0MM_dKKlmE-83" value="Relationship" style="shape=rhombus;perimeter=rhombusPerimeter;whiteSpace=wrap;html=1;align=center;" vertex="1" parent="1">
          <mxGeometry x="-1410" y="-290" width="120" height="60" as="geometry" />
        </mxCell>
        <mxCell id="Od_H-WSa5P0MM_dKKlmE-91" style="edgeStyle=orthogonalEdgeStyle;rounded=0;orthogonalLoop=1;jettySize=auto;html=1;exitX=0.5;exitY=0;exitDx=0;exitDy=0;entryX=0;entryY=1;entryDx=0;entryDy=0;endArrow=none;startFill=0;curved=1;" edge="1" parent="1" source="Od_H-WSa5P0MM_dKKlmE-89" target="Od_H-WSa5P0MM_dKKlmE-4">
          <mxGeometry relative="1" as="geometry" />
        </mxCell>
        <mxCell id="Od_H-WSa5P0MM_dKKlmE-89" value="Relationship" style="shape=rhombus;perimeter=rhombusPerimeter;whiteSpace=wrap;html=1;align=center;" vertex="1" parent="1">
          <mxGeometry x="-1190" y="-600" width="120" height="60" as="geometry" />
        </mxCell>
        <mxCell id="Od_H-WSa5P0MM_dKKlmE-92" value="m" style="text;html=1;align=center;verticalAlign=middle;resizable=0;points=[];autosize=1;strokeColor=none;fillColor=none;" vertex="1" parent="1">
          <mxGeometry x="-875" y="-710" width="30" height="30" as="geometry" />
        </mxCell>
        <mxCell id="Od_H-WSa5P0MM_dKKlmE-93" value="n" style="text;html=1;align=center;verticalAlign=middle;resizable=0;points=[];autosize=1;strokeColor=none;fillColor=none;" vertex="1" parent="1">
          <mxGeometry x="-875" y="-472" width="30" height="30" as="geometry" />
        </mxCell>
        <mxCell id="Od_H-WSa5P0MM_dKKlmE-94" style="edgeStyle=orthogonalEdgeStyle;rounded=0;orthogonalLoop=1;jettySize=auto;html=1;exitX=0.5;exitY=1;exitDx=0;exitDy=0;" edge="1" parent="1" source="Od_H-WSa5P0MM_dKKlmE-59" target="Od_H-WSa5P0MM_dKKlmE-59">
          <mxGeometry relative="1" as="geometry" />
        </mxCell>
        <mxCell id="Od_H-WSa5P0MM_dKKlmE-99" style="edgeStyle=orthogonalEdgeStyle;rounded=0;orthogonalLoop=1;jettySize=auto;html=1;exitX=0.5;exitY=1;exitDx=0;exitDy=0;entryX=0.5;entryY=0;entryDx=0;entryDy=0;endArrow=none;startFill=0;" edge="1" parent="1" source="Od_H-WSa5P0MM_dKKlmE-97" target="Od_H-WSa5P0MM_dKKlmE-9">
          <mxGeometry relative="1" as="geometry" />
        </mxCell>
        <mxCell id="Od_H-WSa5P0MM_dKKlmE-97" value="Relationship" style="shape=rhombus;perimeter=rhombusPerimeter;whiteSpace=wrap;html=1;align=center;" vertex="1" parent="1">
          <mxGeometry x="-1410" y="-710" width="120" height="60" as="geometry" />
        </mxCell>
        <mxCell id="Od_H-WSa5P0MM_dKKlmE-100" value="n" style="text;html=1;align=center;verticalAlign=middle;resizable=0;points=[];autosize=1;strokeColor=none;fillColor=none;" vertex="1" parent="1">
          <mxGeometry x="-1405" y="-1002" width="30" height="30" as="geometry" />
        </mxCell>
        <mxCell id="Od_H-WSa5P0MM_dKKlmE-101" value="m" style="text;html=1;align=center;verticalAlign=middle;resizable=0;points=[];autosize=1;strokeColor=none;fillColor=none;" vertex="1" parent="1">
          <mxGeometry x="-1300" y="-450" width="30" height="30" as="geometry" />
        </mxCell>
        <mxCell id="Od_H-WSa5P0MM_dKKlmE-102" value="n" style="text;html=1;align=center;verticalAlign=middle;resizable=0;points=[];autosize=1;strokeColor=none;fillColor=none;" vertex="1" parent="1">
          <mxGeometry x="-960" y="-720" width="30" height="30" as="geometry" />
        </mxCell>
        <mxCell id="Od_H-WSa5P0MM_dKKlmE-108" style="edgeStyle=orthogonalEdgeStyle;rounded=0;orthogonalLoop=1;jettySize=auto;html=1;exitX=0.5;exitY=1;exitDx=0;exitDy=0;entryX=0;entryY=0;entryDx=0;entryDy=0;endArrow=none;startFill=0;curved=1;" edge="1" parent="1" source="Od_H-WSa5P0MM_dKKlmE-104" target="Od_H-WSa5P0MM_dKKlmE-9">
          <mxGeometry relative="1" as="geometry" />
        </mxCell>
        <mxCell id="Od_H-WSa5P0MM_dKKlmE-104" value="STORNIERT" style="ellipse;whiteSpace=wrap;html=1;align=center;" vertex="1" parent="1">
          <mxGeometry x="-1465" y="-520" width="100" height="40" as="geometry" />
        </mxCell>
        <mxCell id="Od_H-WSa5P0MM_dKKlmE-105" value="GESAMTPREIS" style="ellipse;whiteSpace=wrap;html=1;align=center;" vertex="1" parent="1">
          <mxGeometry x="-1320" y="-520" width="100" height="40" as="geometry" />
        </mxCell>
        <mxCell id="Od_H-WSa5P0MM_dKKlmE-120" style="edgeStyle=orthogonalEdgeStyle;rounded=0;orthogonalLoop=1;jettySize=auto;html=1;exitX=1;exitY=0.5;exitDx=0;exitDy=0;entryX=0.25;entryY=0;entryDx=0;entryDy=0;curved=1;endArrow=none;startFill=0;" edge="1" parent="1" source="Od_H-WSa5P0MM_dKKlmE-106" target="Od_H-WSa5P0MM_dKKlmE-116">
          <mxGeometry relative="1" as="geometry" />
        </mxCell>
        <mxCell id="Od_H-WSa5P0MM_dKKlmE-106" value="VERSAND&lt;br&gt;DIENST" style="ellipse;whiteSpace=wrap;html=1;align=center;" vertex="1" parent="1">
          <mxGeometry x="-2060" y="-620" width="100" height="40" as="geometry" />
        </mxCell>
        <mxCell id="Od_H-WSa5P0MM_dKKlmE-119" style="edgeStyle=orthogonalEdgeStyle;rounded=0;orthogonalLoop=1;jettySize=auto;html=1;exitX=0.5;exitY=1;exitDx=0;exitDy=0;entryX=0.5;entryY=0;entryDx=0;entryDy=0;endArrow=none;startFill=0;curved=1;" edge="1" parent="1" source="Od_H-WSa5P0MM_dKKlmE-107" target="Od_H-WSa5P0MM_dKKlmE-116">
          <mxGeometry relative="1" as="geometry" />
        </mxCell>
        <mxCell id="Od_H-WSa5P0MM_dKKlmE-107" value="&lt;u&gt;VERSANDNR&lt;/u&gt;" style="ellipse;whiteSpace=wrap;html=1;align=center;" vertex="1" parent="1">
          <mxGeometry x="-1920" y="-660" width="100" height="40" as="geometry" />
        </mxCell>
        <mxCell id="Od_H-WSa5P0MM_dKKlmE-110" style="edgeStyle=orthogonalEdgeStyle;rounded=0;orthogonalLoop=1;jettySize=auto;html=1;exitX=0;exitY=1;exitDx=0;exitDy=0;entryX=0.668;entryY=0.04;entryDx=0;entryDy=0;entryPerimeter=0;endArrow=none;startFill=0;curved=1;" edge="1" parent="1" source="Od_H-WSa5P0MM_dKKlmE-105" target="Od_H-WSa5P0MM_dKKlmE-9">
          <mxGeometry relative="1" as="geometry" />
        </mxCell>
        <mxCell id="Od_H-WSa5P0MM_dKKlmE-114" value="BESTELLNR" style="ellipse;whiteSpace=wrap;html=1;align=center;fontStyle=4;" vertex="1" parent="1">
          <mxGeometry x="-1320" y="-370" width="100" height="40" as="geometry" />
        </mxCell>
        <mxCell id="Od_H-WSa5P0MM_dKKlmE-121" style="edgeStyle=orthogonalEdgeStyle;rounded=0;orthogonalLoop=1;jettySize=auto;html=1;exitX=1;exitY=0.5;exitDx=0;exitDy=0;endArrow=none;startFill=0;" edge="1" parent="1" source="Od_H-WSa5P0MM_dKKlmE-116" target="Od_H-WSa5P0MM_dKKlmE-117">
          <mxGeometry relative="1" as="geometry" />
        </mxCell>
        <mxCell id="Od_H-WSa5P0MM_dKKlmE-116" value="VERSAND" style="whiteSpace=wrap;html=1;align=center;" vertex="1" parent="1">
          <mxGeometry x="-1920" y="-560" width="100" height="40" as="geometry" />
        </mxCell>
        <mxCell id="Od_H-WSa5P0MM_dKKlmE-118" style="edgeStyle=orthogonalEdgeStyle;rounded=0;orthogonalLoop=1;jettySize=auto;html=1;exitX=1;exitY=0.5;exitDx=0;exitDy=0;entryX=0;entryY=0.25;entryDx=0;entryDy=0;endArrow=none;startFill=0;curved=1;" edge="1" parent="1" source="Od_H-WSa5P0MM_dKKlmE-117" target="Od_H-WSa5P0MM_dKKlmE-9">
          <mxGeometry relative="1" as="geometry" />
        </mxCell>
        <mxCell id="Od_H-WSa5P0MM_dKKlmE-117" value="enthält" style="shape=rhombus;perimeter=rhombusPerimeter;whiteSpace=wrap;html=1;align=center;" vertex="1" parent="1">
          <mxGeometry x="-1720" y="-570" width="120" height="60" as="geometry" />
        </mxCell>
        <mxCell id="Od_H-WSa5P0MM_dKKlmE-122" value="1" style="text;html=1;align=center;verticalAlign=middle;resizable=0;points=[];autosize=1;strokeColor=none;fillColor=none;" vertex="1" parent="1">
          <mxGeometry x="-1430" y="-432" width="30" height="30" as="geometry" />
        </mxCell>
        <mxCell id="Od_H-WSa5P0MM_dKKlmE-123" value="1" style="text;html=1;align=center;verticalAlign=middle;resizable=0;points=[];autosize=1;strokeColor=none;fillColor=none;" vertex="1" parent="1">
          <mxGeometry x="-1820" y="-570" width="30" height="30" as="geometry" />
        </mxCell>
        <mxCell id="Od_H-WSa5P0MM_dKKlmE-124" value="enthält" style="shape=rhombus;perimeter=rhombusPerimeter;whiteSpace=wrap;html=1;align=center;" vertex="1" parent="1">
          <mxGeometry x="-1720" y="-330" width="120" height="60" as="geometry" />
        </mxCell>
        <mxCell id="Od_H-WSa5P0MM_dKKlmE-128" value="1" style="text;html=1;align=center;verticalAlign=middle;resizable=0;points=[];autosize=1;strokeColor=none;fillColor=none;" vertex="1" parent="1">
          <mxGeometry x="-1405" y="-402" width="30" height="30" as="geometry" />
        </mxCell>
        <mxCell id="Od_H-WSa5P0MM_dKKlmE-129" value="1" style="text;html=1;align=center;verticalAlign=middle;resizable=0;points=[];autosize=1;strokeColor=none;fillColor=none;" vertex="1" parent="1">
          <mxGeometry x="-1820" y="-330" width="30" height="30" as="geometry" />
        </mxCell>
        <mxCell id="Od_H-WSa5P0MM_dKKlmE-130" value="n" style="text;html=1;align=center;verticalAlign=middle;resizable=0;points=[];autosize=1;strokeColor=none;fillColor=none;" vertex="1" parent="1">
          <mxGeometry x="-1350" y="-402" width="30" height="30" as="geometry" />
        </mxCell>
        <mxCell id="Od_H-WSa5P0MM_dKKlmE-132" style="edgeStyle=orthogonalEdgeStyle;rounded=0;orthogonalLoop=1;jettySize=auto;html=1;exitX=1;exitY=0.5;exitDx=0;exitDy=0;entryX=0;entryY=0.5;entryDx=0;entryDy=0;endArrow=none;startFill=0;curved=1;" edge="1" parent="1" source="Od_H-WSa5P0MM_dKKlmE-131" target="Od_H-WSa5P0MM_dKKlmE-116">
          <mxGeometry relative="1" as="geometry" />
        </mxCell>
        <mxCell id="Od_H-WSa5P0MM_dKKlmE-131" value="VERSANDDATUM" style="ellipse;whiteSpace=wrap;html=1;align=center;" vertex="1" parent="1">
          <mxGeometry x="-2060" y="-550" width="100" height="40" as="geometry" />
        </mxCell>
        <mxCell id="Od_H-WSa5P0MM_dKKlmE-136" style="edgeStyle=orthogonalEdgeStyle;rounded=0;orthogonalLoop=1;jettySize=auto;html=1;exitX=1;exitY=0.5;exitDx=0;exitDy=0;entryX=0;entryY=0.75;entryDx=0;entryDy=0;endArrow=none;startFill=0;curved=1;" edge="1" parent="1" source="Od_H-WSa5P0MM_dKKlmE-133" target="Od_H-WSa5P0MM_dKKlmE-9">
          <mxGeometry relative="1" as="geometry" />
        </mxCell>
        <mxCell id="Od_H-WSa5P0MM_dKKlmE-133" value="LIEFERDATUM" style="ellipse;whiteSpace=wrap;html=1;align=center;" vertex="1" parent="1">
          <mxGeometry x="-1530" y="-407" width="100" height="40" as="geometry" />
        </mxCell>
        <mxCell id="Od_H-WSa5P0MM_dKKlmE-142" style="edgeStyle=orthogonalEdgeStyle;rounded=0;orthogonalLoop=1;jettySize=auto;html=1;exitX=0.5;exitY=1;exitDx=0;exitDy=0;entryX=0.75;entryY=0;entryDx=0;entryDy=0;endArrow=none;startFill=0;curved=1;" edge="1" parent="1" source="Od_H-WSa5P0MM_dKKlmE-137" target="Od_H-WSa5P0MM_dKKlmE-10">
          <mxGeometry relative="1" as="geometry" />
        </mxCell>
        <mxCell id="Od_H-WSa5P0MM_dKKlmE-137" value="RECHNUNGS&lt;br&gt;FRIST" style="ellipse;whiteSpace=wrap;html=1;align=center;" vertex="1" parent="1">
          <mxGeometry x="-1820" y="-402" width="100" height="40" as="geometry" />
        </mxCell>
        <mxCell id="Od_H-WSa5P0MM_dKKlmE-141" style="edgeStyle=orthogonalEdgeStyle;rounded=0;orthogonalLoop=1;jettySize=auto;html=1;exitX=0.5;exitY=1;exitDx=0;exitDy=0;entryX=0.25;entryY=0;entryDx=0;entryDy=0;endArrow=none;startFill=0;curved=1;" edge="1" parent="1" source="Od_H-WSa5P0MM_dKKlmE-138" target="Od_H-WSa5P0MM_dKKlmE-10">
          <mxGeometry relative="1" as="geometry" />
        </mxCell>
        <mxCell id="Od_H-WSa5P0MM_dKKlmE-138" value="RECHNUNGS&lt;br&gt;DATUM" style="ellipse;whiteSpace=wrap;html=1;align=center;" vertex="1" parent="1">
          <mxGeometry x="-1940" y="-402" width="100" height="40" as="geometry" />
        </mxCell>
        <mxCell id="Od_H-WSa5P0MM_dKKlmE-143" style="edgeStyle=orthogonalEdgeStyle;rounded=0;orthogonalLoop=1;jettySize=auto;html=1;exitX=1;exitY=0.5;exitDx=0;exitDy=0;endArrow=none;startFill=0;" edge="1" parent="1" source="Od_H-WSa5P0MM_dKKlmE-139" target="Od_H-WSa5P0MM_dKKlmE-10">
          <mxGeometry relative="1" as="geometry" />
        </mxCell>
        <mxCell id="Od_H-WSa5P0MM_dKKlmE-139" value="BEZAHLT" style="ellipse;whiteSpace=wrap;html=1;align=center;" vertex="1" parent="1">
          <mxGeometry x="-2050" y="-320" width="100" height="40" as="geometry" />
        </mxCell>
        <mxCell id="Od_H-WSa5P0MM_dKKlmE-140" value="RECHGUNGSNR" style="ellipse;whiteSpace=wrap;html=1;align=center;fontStyle=4;" vertex="1" parent="1">
          <mxGeometry x="-1920" y="-240" width="100" height="40" as="geometry" />
        </mxCell>
        <mxCell id="Od_H-WSa5P0MM_dKKlmE-157" style="edgeStyle=orthogonalEdgeStyle;rounded=0;orthogonalLoop=1;jettySize=auto;html=1;exitX=0;exitY=0.5;exitDx=0;exitDy=0;entryX=1;entryY=0.75;entryDx=0;entryDy=0;endArrow=none;startFill=0;curved=1;" edge="1" parent="1" source="Od_H-WSa5P0MM_dKKlmE-146" target="Od_H-WSa5P0MM_dKKlmE-2">
          <mxGeometry relative="1" as="geometry" />
        </mxCell>
        <mxCell id="Od_H-WSa5P0MM_dKKlmE-146" value="ZUTATENID" style="ellipse;whiteSpace=wrap;html=1;align=center;fontStyle=4;" vertex="1" parent="1">
          <mxGeometry x="-200" y="-1042" width="100" height="40" as="geometry" />
        </mxCell>
        <mxCell id="Od_H-WSa5P0MM_dKKlmE-158" style="edgeStyle=orthogonalEdgeStyle;rounded=0;orthogonalLoop=1;jettySize=auto;html=1;exitX=0;exitY=0.5;exitDx=0;exitDy=0;entryX=1;entryY=0.5;entryDx=0;entryDy=0;endArrow=none;startFill=0;curved=1;" edge="1" parent="1" source="Od_H-WSa5P0MM_dKKlmE-147" target="Od_H-WSa5P0MM_dKKlmE-2">
          <mxGeometry relative="1" as="geometry" />
        </mxCell>
        <mxCell id="Od_H-WSa5P0MM_dKKlmE-147" value="NATRIUM_G" style="ellipse;whiteSpace=wrap;html=1;align=center;" vertex="1" parent="1">
          <mxGeometry x="-230" y="-1100" width="100" height="40" as="geometry" />
        </mxCell>
        <mxCell id="Od_H-WSa5P0MM_dKKlmE-160" style="edgeStyle=orthogonalEdgeStyle;rounded=0;orthogonalLoop=1;jettySize=auto;html=1;exitX=0.5;exitY=1;exitDx=0;exitDy=0;entryX=0.75;entryY=0;entryDx=0;entryDy=0;endArrow=none;startFill=0;curved=1;" edge="1" parent="1" source="Od_H-WSa5P0MM_dKKlmE-148" target="Od_H-WSa5P0MM_dKKlmE-2">
          <mxGeometry relative="1" as="geometry" />
        </mxCell>
        <mxCell id="Od_H-WSa5P0MM_dKKlmE-148" value="PROTEIN_G" style="ellipse;whiteSpace=wrap;html=1;align=center;" vertex="1" parent="1">
          <mxGeometry x="-413" y="-1169" width="100" height="40" as="geometry" />
        </mxCell>
        <mxCell id="Od_H-WSa5P0MM_dKKlmE-159" style="edgeStyle=orthogonalEdgeStyle;rounded=0;orthogonalLoop=1;jettySize=auto;html=1;exitX=0;exitY=0.5;exitDx=0;exitDy=0;entryX=1;entryY=0.25;entryDx=0;entryDy=0;endArrow=none;startFill=0;curved=1;" edge="1" parent="1" source="Od_H-WSa5P0MM_dKKlmE-149" target="Od_H-WSa5P0MM_dKKlmE-2">
          <mxGeometry relative="1" as="geometry" />
        </mxCell>
        <mxCell id="Od_H-WSa5P0MM_dKKlmE-149" value="KALORIEN_KCAL" style="ellipse;whiteSpace=wrap;html=1;align=center;" vertex="1" parent="1">
          <mxGeometry x="-310" y="-1140" width="100" height="40" as="geometry" />
        </mxCell>
        <mxCell id="Od_H-WSa5P0MM_dKKlmE-161" style="edgeStyle=orthogonalEdgeStyle;rounded=0;orthogonalLoop=1;jettySize=auto;html=1;exitX=1;exitY=1;exitDx=0;exitDy=0;entryX=0.5;entryY=0;entryDx=0;entryDy=0;endArrow=none;startFill=0;curved=1;" edge="1" parent="1" source="Od_H-WSa5P0MM_dKKlmE-150" target="Od_H-WSa5P0MM_dKKlmE-2">
          <mxGeometry relative="1" as="geometry" />
        </mxCell>
        <mxCell id="Od_H-WSa5P0MM_dKKlmE-150" value="KOHLEN&lt;br&gt;HYDRATE_G" style="ellipse;whiteSpace=wrap;html=1;align=center;" vertex="1" parent="1">
          <mxGeometry x="-530" y="-1169" width="100" height="40" as="geometry" />
        </mxCell>
        <mxCell id="Od_H-WSa5P0MM_dKKlmE-162" style="edgeStyle=orthogonalEdgeStyle;rounded=0;orthogonalLoop=1;jettySize=auto;html=1;exitX=1;exitY=1;exitDx=0;exitDy=0;entryX=0.25;entryY=0;entryDx=0;entryDy=0;curved=1;endArrow=none;startFill=0;" edge="1" parent="1" source="Od_H-WSa5P0MM_dKKlmE-151" target="Od_H-WSa5P0MM_dKKlmE-2">
          <mxGeometry relative="1" as="geometry" />
        </mxCell>
        <mxCell id="Od_H-WSa5P0MM_dKKlmE-151" value="ZUCKER_G" style="ellipse;whiteSpace=wrap;html=1;align=center;" vertex="1" parent="1">
          <mxGeometry x="-610" y="-1130" width="100" height="40" as="geometry" />
        </mxCell>
        <mxCell id="Od_H-WSa5P0MM_dKKlmE-163" style="edgeStyle=orthogonalEdgeStyle;rounded=0;orthogonalLoop=1;jettySize=auto;html=1;exitX=1;exitY=0.5;exitDx=0;exitDy=0;entryX=0;entryY=0.25;entryDx=0;entryDy=0;endArrow=none;startFill=0;curved=1;" edge="1" parent="1" source="Od_H-WSa5P0MM_dKKlmE-152" target="Od_H-WSa5P0MM_dKKlmE-2">
          <mxGeometry relative="1" as="geometry" />
        </mxCell>
        <mxCell id="Od_H-WSa5P0MM_dKKlmE-152" value="FETT_G" style="ellipse;whiteSpace=wrap;html=1;align=center;" vertex="1" parent="1">
          <mxGeometry x="-650" y="-1080" width="100" height="40" as="geometry" />
        </mxCell>
        <mxCell id="Od_H-WSa5P0MM_dKKlmE-156" style="edgeStyle=orthogonalEdgeStyle;rounded=0;orthogonalLoop=1;jettySize=auto;html=1;exitX=0;exitY=0.5;exitDx=0;exitDy=0;entryX=1;entryY=1;entryDx=0;entryDy=0;endArrow=none;startFill=0;curved=1;" edge="1" parent="1" source="Od_H-WSa5P0MM_dKKlmE-153" target="Od_H-WSa5P0MM_dKKlmE-2">
          <mxGeometry relative="1" as="geometry" />
        </mxCell>
        <mxCell id="Od_H-WSa5P0MM_dKKlmE-153" value="GESAETTIGTE_&lt;br&gt;FETTSAUREN_G" style="ellipse;whiteSpace=wrap;html=1;align=center;" vertex="1" parent="1">
          <mxGeometry x="-250" y="-990" width="110" height="50" as="geometry" />
        </mxCell>
        <mxCell id="Od_H-WSa5P0MM_dKKlmE-154" value="BALLAST&lt;br&gt;STOFFE_G" style="ellipse;whiteSpace=wrap;html=1;align=center;" vertex="1" parent="1">
          <mxGeometry x="-320" y="-930" width="100" height="40" as="geometry" />
        </mxCell>
        <mxCell id="Od_H-WSa5P0MM_dKKlmE-164" value="1" style="text;html=1;align=center;verticalAlign=middle;resizable=0;points=[];autosize=1;strokeColor=none;fillColor=none;" vertex="1" parent="1">
          <mxGeometry x="-830" y="-762" width="30" height="30" as="geometry" />
        </mxCell>
        <mxCell id="Od_H-WSa5P0MM_dKKlmE-165" value="1" style="text;html=1;align=center;verticalAlign=middle;resizable=0;points=[];autosize=1;strokeColor=none;fillColor=none;" vertex="1" parent="1">
          <mxGeometry x="-470" y="-1020" width="30" height="30" as="geometry" />
        </mxCell>
        <mxCell id="Od_H-WSa5P0MM_dKKlmE-175" style="edgeStyle=orthogonalEdgeStyle;rounded=0;orthogonalLoop=1;jettySize=auto;html=1;exitX=1;exitY=0.5;exitDx=0;exitDy=0;entryX=0.5;entryY=0;entryDx=0;entryDy=0;curved=1;endArrow=none;startFill=0;" edge="1" parent="1" source="Od_H-WSa5P0MM_dKKlmE-166" target="Od_H-WSa5P0MM_dKKlmE-6">
          <mxGeometry relative="1" as="geometry" />
        </mxCell>
        <mxCell id="Od_H-WSa5P0MM_dKKlmE-166" value="enthält" style="shape=rhombus;perimeter=rhombusPerimeter;whiteSpace=wrap;html=1;align=center;" vertex="1" parent="1">
          <mxGeometry x="-600" y="-610" width="120" height="60" as="geometry" />
        </mxCell>
        <mxCell id="Od_H-WSa5P0MM_dKKlmE-170" value="n" style="text;html=1;align=center;verticalAlign=middle;resizable=0;points=[];autosize=1;strokeColor=none;fillColor=none;" vertex="1" parent="1">
          <mxGeometry x="-817" y="-720" width="30" height="30" as="geometry" />
        </mxCell>
        <mxCell id="Od_H-WSa5P0MM_dKKlmE-171" value="1" style="text;html=1;align=center;verticalAlign=middle;resizable=0;points=[];autosize=1;strokeColor=none;fillColor=none;" vertex="1" parent="1">
          <mxGeometry x="-390" y="-392" width="30" height="30" as="geometry" />
        </mxCell>
        <mxCell id="Od_H-WSa5P0MM_dKKlmE-178" style="edgeStyle=orthogonalEdgeStyle;rounded=0;orthogonalLoop=1;jettySize=auto;html=1;exitX=0;exitY=0.5;exitDx=0;exitDy=0;entryX=1;entryY=0.5;entryDx=0;entryDy=0;endArrow=none;startFill=0;" edge="1" parent="1" source="Od_H-WSa5P0MM_dKKlmE-173" target="Od_H-WSa5P0MM_dKKlmE-6">
          <mxGeometry relative="1" as="geometry" />
        </mxCell>
        <mxCell id="Od_H-WSa5P0MM_dKKlmE-173" value="LIEFERANTENID" style="ellipse;whiteSpace=wrap;html=1;align=center;fontStyle=4;" vertex="1" parent="1">
          <mxGeometry x="-300" y="-363.5" width="110" height="47" as="geometry" />
        </mxCell>
        <mxCell id="Od_H-WSa5P0MM_dKKlmE-174" value="NAME" style="ellipse;whiteSpace=wrap;html=1;align=center;" vertex="1" parent="1">
          <mxGeometry x="-580" y="-360" width="100" height="40" as="geometry" />
        </mxCell>
        <mxCell id="Od_H-WSa5P0MM_dKKlmE-180" value="1" style="text;html=1;align=center;verticalAlign=middle;resizable=0;points=[];autosize=1;strokeColor=none;fillColor=none;" vertex="1" parent="1">
          <mxGeometry x="-910" y="190" width="30" height="30" as="geometry" />
        </mxCell>
        <mxCell id="Od_H-WSa5P0MM_dKKlmE-189" style="edgeStyle=orthogonalEdgeStyle;rounded=0;orthogonalLoop=1;jettySize=auto;html=1;exitX=0.5;exitY=1;exitDx=0;exitDy=0;endArrow=none;startFill=0;" edge="1" parent="1" source="Od_H-WSa5P0MM_dKKlmE-182" target="Od_H-WSa5P0MM_dKKlmE-22">
          <mxGeometry relative="1" as="geometry" />
        </mxCell>
        <mxCell id="Od_H-WSa5P0MM_dKKlmE-182" value="hat" style="shape=rhombus;perimeter=rhombusPerimeter;whiteSpace=wrap;html=1;align=center;" vertex="1" parent="1">
          <mxGeometry x="-940" y="90" width="120" height="60" as="geometry" />
        </mxCell>
        <mxCell id="Od_H-WSa5P0MM_dKKlmE-185" style="edgeStyle=orthogonalEdgeStyle;rounded=0;orthogonalLoop=1;jettySize=auto;html=1;exitX=1;exitY=0.5;exitDx=0;exitDy=0;entryX=0.5;entryY=1;entryDx=0;entryDy=0;endArrow=none;startFill=0;curved=1;" edge="1" parent="1" source="Od_H-WSa5P0MM_dKKlmE-184" target="Od_H-WSa5P0MM_dKKlmE-6">
          <mxGeometry relative="1" as="geometry" />
        </mxCell>
        <mxCell id="Od_H-WSa5P0MM_dKKlmE-186" style="edgeStyle=orthogonalEdgeStyle;rounded=0;orthogonalLoop=1;jettySize=auto;html=1;exitX=0;exitY=0.5;exitDx=0;exitDy=0;entryX=1;entryY=0.5;entryDx=0;entryDy=0;endArrow=none;startFill=0;curved=1;" edge="1" parent="1" source="Od_H-WSa5P0MM_dKKlmE-184" target="Od_H-WSa5P0MM_dKKlmE-22">
          <mxGeometry relative="1" as="geometry" />
        </mxCell>
        <mxCell id="Od_H-WSa5P0MM_dKKlmE-184" value="hat" style="shape=rhombus;perimeter=rhombusPerimeter;whiteSpace=wrap;html=1;align=center;" vertex="1" parent="1">
          <mxGeometry x="-680" y="50" width="120" height="60" as="geometry" />
        </mxCell>
        <mxCell id="Od_H-WSa5P0MM_dKKlmE-187" value="1" style="text;html=1;align=center;verticalAlign=middle;resizable=0;points=[];autosize=1;strokeColor=none;fillColor=none;" vertex="1" parent="1">
          <mxGeometry x="-430" y="-320" width="30" height="30" as="geometry" />
        </mxCell>
        <mxCell id="Od_H-WSa5P0MM_dKKlmE-191" value="1" style="text;html=1;align=center;verticalAlign=middle;resizable=0;points=[];autosize=1;strokeColor=none;fillColor=none;" vertex="1" parent="1">
          <mxGeometry x="-1110" width="30" height="30" as="geometry" />
        </mxCell>
        <mxCell id="Od_H-WSa5P0MM_dKKlmE-193" style="edgeStyle=orthogonalEdgeStyle;rounded=0;orthogonalLoop=1;jettySize=auto;html=1;exitX=0.5;exitY=0;exitDx=0;exitDy=0;entryX=0.5;entryY=1;entryDx=0;entryDy=0;endArrow=none;startFill=0;curved=1;" edge="1" parent="1" source="Od_H-WSa5P0MM_dKKlmE-192" target="Od_H-WSa5P0MM_dKKlmE-22">
          <mxGeometry relative="1" as="geometry" />
        </mxCell>
        <mxCell id="Od_H-WSa5P0MM_dKKlmE-221" style="edgeStyle=orthogonalEdgeStyle;rounded=0;orthogonalLoop=1;jettySize=auto;html=1;exitX=0.5;exitY=1;exitDx=0;exitDy=0;entryX=1;entryY=0.5;entryDx=0;entryDy=0;endArrow=none;startFill=0;curved=1;" edge="1" parent="1" source="Od_H-WSa5P0MM_dKKlmE-192" target="Od_H-WSa5P0MM_dKKlmE-23">
          <mxGeometry relative="1" as="geometry" />
        </mxCell>
        <mxCell id="Od_H-WSa5P0MM_dKKlmE-192" value="hat" style="shape=rhombus;perimeter=rhombusPerimeter;whiteSpace=wrap;html=1;align=center;" vertex="1" parent="1">
          <mxGeometry x="-940" y="350" width="120" height="60" as="geometry" />
        </mxCell>
        <mxCell id="Od_H-WSa5P0MM_dKKlmE-195" value="1" style="text;html=1;align=center;verticalAlign=middle;resizable=0;points=[];autosize=1;strokeColor=none;fillColor=none;" vertex="1" parent="1">
          <mxGeometry x="-880" y="260" width="30" height="30" as="geometry" />
        </mxCell>
        <mxCell id="Od_H-WSa5P0MM_dKKlmE-196" value="1" style="text;html=1;align=center;verticalAlign=middle;resizable=0;points=[];autosize=1;strokeColor=none;fillColor=none;" vertex="1" parent="1">
          <mxGeometry x="-1060" y="500" width="30" height="30" as="geometry" />
        </mxCell>
        <mxCell id="Od_H-WSa5P0MM_dKKlmE-197" value="1" style="text;html=1;align=center;verticalAlign=middle;resizable=0;points=[];autosize=1;strokeColor=none;fillColor=none;" vertex="1" parent="1">
          <mxGeometry x="-1195" y="-52" width="30" height="30" as="geometry" />
        </mxCell>
        <mxCell id="Od_H-WSa5P0MM_dKKlmE-198" value="n" style="text;html=1;align=center;verticalAlign=middle;resizable=0;points=[];autosize=1;strokeColor=none;fillColor=none;" vertex="1" parent="1">
          <mxGeometry x="-1060" y="-52" width="30" height="30" as="geometry" />
        </mxCell>
        <mxCell id="Od_H-WSa5P0MM_dKKlmE-199" value="m" style="text;html=1;align=center;verticalAlign=middle;resizable=0;points=[];autosize=1;strokeColor=none;fillColor=none;" vertex="1" parent="1">
          <mxGeometry x="-875" y="-397" width="30" height="30" as="geometry" />
        </mxCell>
        <mxCell id="Od_H-WSa5P0MM_dKKlmE-204" style="edgeStyle=orthogonalEdgeStyle;rounded=0;orthogonalLoop=1;jettySize=auto;html=1;exitX=0.5;exitY=1;exitDx=0;exitDy=0;endArrow=none;startFill=0;curved=1;" edge="1" parent="1" source="Od_H-WSa5P0MM_dKKlmE-203" target="Od_H-WSa5P0MM_dKKlmE-11">
          <mxGeometry relative="1" as="geometry" />
        </mxCell>
        <mxCell id="Od_H-WSa5P0MM_dKKlmE-203" value="KUNDENNR" style="ellipse;whiteSpace=wrap;html=1;align=center;fontStyle=4;" vertex="1" parent="1">
          <mxGeometry x="-1110" y="-120" width="100" height="40" as="geometry" />
        </mxCell>
        <mxCell id="Od_H-WSa5P0MM_dKKlmE-205" value="1" style="text;html=1;align=center;verticalAlign=middle;resizable=0;points=[];autosize=1;strokeColor=none;fillColor=none;" vertex="1" parent="1">
          <mxGeometry x="-827" y="240" width="30" height="30" as="geometry" />
        </mxCell>
        <mxCell id="Od_H-WSa5P0MM_dKKlmE-206" value="KONTO&lt;br&gt;INFORMATIONEN" style="whiteSpace=wrap;html=1;align=center;" vertex="1" parent="1">
          <mxGeometry x="-1395" y="220" width="100" height="40" as="geometry" />
        </mxCell>
        <mxCell id="Od_H-WSa5P0MM_dKKlmE-210" style="edgeStyle=orthogonalEdgeStyle;rounded=0;orthogonalLoop=1;jettySize=auto;html=1;exitX=0.5;exitY=1;exitDx=0;exitDy=0;endArrow=none;startFill=0;" edge="1" parent="1" source="Od_H-WSa5P0MM_dKKlmE-207" target="Od_H-WSa5P0MM_dKKlmE-206">
          <mxGeometry relative="1" as="geometry" />
        </mxCell>
        <mxCell id="Od_H-WSa5P0MM_dKKlmE-207" value="hat" style="shape=rhombus;perimeter=rhombusPerimeter;whiteSpace=wrap;html=1;align=center;" vertex="1" parent="1">
          <mxGeometry x="-1405" y="90" width="120" height="60" as="geometry" />
        </mxCell>
        <mxCell id="Od_H-WSa5P0MM_dKKlmE-209" value="1" style="text;html=1;align=center;verticalAlign=middle;resizable=0;points=[];autosize=1;strokeColor=none;fillColor=none;" vertex="1" parent="1">
          <mxGeometry x="-1175" width="30" height="30" as="geometry" />
        </mxCell>
        <mxCell id="Od_H-WSa5P0MM_dKKlmE-211" value="1" style="text;html=1;align=center;verticalAlign=middle;resizable=0;points=[];autosize=1;strokeColor=none;fillColor=none;" vertex="1" parent="1">
          <mxGeometry x="-1375" y="190" width="30" height="30" as="geometry" />
        </mxCell>
        <mxCell id="Od_H-WSa5P0MM_dKKlmE-212" value="KONTOID" style="ellipse;whiteSpace=wrap;html=1;align=center;fontStyle=4;" vertex="1" parent="1">
          <mxGeometry x="-1540" y="160" width="100" height="40" as="geometry" />
        </mxCell>
        <mxCell id="Od_H-WSa5P0MM_dKKlmE-216" style="edgeStyle=orthogonalEdgeStyle;rounded=0;orthogonalLoop=1;jettySize=auto;html=1;exitX=1;exitY=0.5;exitDx=0;exitDy=0;entryX=0;entryY=0.5;entryDx=0;entryDy=0;endArrow=none;startFill=0;curved=1;" edge="1" parent="1" source="Od_H-WSa5P0MM_dKKlmE-213" target="Od_H-WSa5P0MM_dKKlmE-206">
          <mxGeometry relative="1" as="geometry" />
        </mxCell>
        <mxCell id="Od_H-WSa5P0MM_dKKlmE-213" value="EMAIL" style="ellipse;whiteSpace=wrap;html=1;align=center;" vertex="1" parent="1">
          <mxGeometry x="-1610" y="220" width="100" height="40" as="geometry" />
        </mxCell>
        <mxCell id="Od_H-WSa5P0MM_dKKlmE-214" value="PASSWORT" style="ellipse;whiteSpace=wrap;html=1;align=center;" vertex="1" parent="1">
          <mxGeometry x="-1540" y="290" width="100" height="40" as="geometry" />
        </mxCell>
        <mxCell id="Od_H-WSa5P0MM_dKKlmE-215" style="edgeStyle=orthogonalEdgeStyle;rounded=0;orthogonalLoop=1;jettySize=auto;html=1;exitX=1;exitY=0.5;exitDx=0;exitDy=0;entryX=0.159;entryY=0.019;entryDx=0;entryDy=0;entryPerimeter=0;endArrow=none;startFill=0;curved=1;" edge="1" parent="1" source="Od_H-WSa5P0MM_dKKlmE-212" target="Od_H-WSa5P0MM_dKKlmE-206">
          <mxGeometry relative="1" as="geometry" />
        </mxCell>
        <mxCell id="Od_H-WSa5P0MM_dKKlmE-217" style="edgeStyle=orthogonalEdgeStyle;rounded=0;orthogonalLoop=1;jettySize=auto;html=1;exitX=1;exitY=0.5;exitDx=0;exitDy=0;entryX=0.147;entryY=0.99;entryDx=0;entryDy=0;entryPerimeter=0;endArrow=none;startFill=0;curved=1;" edge="1" parent="1" source="Od_H-WSa5P0MM_dKKlmE-214" target="Od_H-WSa5P0MM_dKKlmE-206">
          <mxGeometry relative="1" as="geometry" />
        </mxCell>
        <mxCell id="Od_H-WSa5P0MM_dKKlmE-218" value="ERSTELLUNGS&lt;br&gt;DATUM" style="ellipse;whiteSpace=wrap;html=1;align=center;" vertex="1" parent="1">
          <mxGeometry x="-1285" y="160" width="115" height="50" as="geometry" />
        </mxCell>
        <mxCell id="Od_H-WSa5P0MM_dKKlmE-219" style="edgeStyle=orthogonalEdgeStyle;rounded=0;orthogonalLoop=1;jettySize=auto;html=1;exitX=0;exitY=1;exitDx=0;exitDy=0;entryX=0.912;entryY=-0.01;entryDx=0;entryDy=0;entryPerimeter=0;endArrow=none;startFill=0;curved=1;" edge="1" parent="1" source="Od_H-WSa5P0MM_dKKlmE-218" target="Od_H-WSa5P0MM_dKKlmE-206">
          <mxGeometry relative="1" as="geometry" />
        </mxCell>
        <mxCell id="Od_H-WSa5P0MM_dKKlmE-223" style="edgeStyle=orthogonalEdgeStyle;rounded=0;orthogonalLoop=1;jettySize=auto;html=1;exitX=0.5;exitY=0;exitDx=0;exitDy=0;entryX=0.5;entryY=1;entryDx=0;entryDy=0;endArrow=none;startFill=0;" edge="1" parent="1" source="Od_H-WSa5P0MM_dKKlmE-222" target="Od_H-WSa5P0MM_dKKlmE-206">
          <mxGeometry relative="1" as="geometry" />
        </mxCell>
        <mxCell id="Od_H-WSa5P0MM_dKKlmE-224" style="edgeStyle=orthogonalEdgeStyle;rounded=0;orthogonalLoop=1;jettySize=auto;html=1;exitX=0.5;exitY=1;exitDx=0;exitDy=0;entryX=0;entryY=0.5;entryDx=0;entryDy=0;endArrow=none;startFill=0;curved=1;" edge="1" parent="1" source="Od_H-WSa5P0MM_dKKlmE-222" target="Od_H-WSa5P0MM_dKKlmE-23">
          <mxGeometry relative="1" as="geometry" />
        </mxCell>
        <mxCell id="Od_H-WSa5P0MM_dKKlmE-222" value="hat" style="shape=rhombus;perimeter=rhombusPerimeter;whiteSpace=wrap;html=1;align=center;" vertex="1" parent="1">
          <mxGeometry x="-1405" y="350" width="120" height="60" as="geometry" />
        </mxCell>
        <mxCell id="Od_H-WSa5P0MM_dKKlmE-225" value="1" style="text;html=1;align=center;verticalAlign=middle;resizable=0;points=[];autosize=1;strokeColor=none;fillColor=none;" vertex="1" parent="1">
          <mxGeometry x="-1190" y="500" width="30" height="30" as="geometry" />
        </mxCell>
        <mxCell id="Od_H-WSa5P0MM_dKKlmE-226" value="1" style="text;html=1;align=center;verticalAlign=middle;resizable=0;points=[];autosize=1;strokeColor=none;fillColor=none;" vertex="1" parent="1">
          <mxGeometry x="-1345" y="260" width="30" height="30" as="geometry" />
        </mxCell>
        <mxCell id="Od_H-WSa5P0MM_dKKlmE-227" value="NACHNAMEN" style="ellipse;whiteSpace=wrap;html=1;align=center;" vertex="1" parent="1">
          <mxGeometry x="-1020" y="150" width="100" height="40" as="geometry" />
        </mxCell>
        <mxCell id="Od_H-WSa5P0MM_dKKlmE-228" value="VORNAMEN" style="ellipse;whiteSpace=wrap;html=1;align=center;" vertex="1" parent="1">
          <mxGeometry x="-852" y="300" width="100" height="40" as="geometry" />
        </mxCell>
        <mxCell id="Od_H-WSa5P0MM_dKKlmE-237" style="edgeStyle=orthogonalEdgeStyle;rounded=0;orthogonalLoop=1;jettySize=auto;html=1;exitX=1;exitY=0.5;exitDx=0;exitDy=0;entryX=0;entryY=0.25;entryDx=0;entryDy=0;endArrow=none;startFill=0;curved=1;" edge="1" parent="1" source="Od_H-WSa5P0MM_dKKlmE-229" target="Od_H-WSa5P0MM_dKKlmE-22">
          <mxGeometry relative="1" as="geometry" />
        </mxCell>
        <mxCell id="Od_H-WSa5P0MM_dKKlmE-229" value="ADRESSENID" style="ellipse;whiteSpace=wrap;html=1;align=center;fontStyle=4;" vertex="1" parent="1">
          <mxGeometry x="-1100" y="190" width="100" height="40" as="geometry" />
        </mxCell>
        <mxCell id="Od_H-WSa5P0MM_dKKlmE-238" style="edgeStyle=orthogonalEdgeStyle;rounded=0;orthogonalLoop=1;jettySize=auto;html=1;exitX=1;exitY=0.5;exitDx=0;exitDy=0;entryX=0;entryY=0.5;entryDx=0;entryDy=0;endArrow=none;startFill=0;curved=1;" edge="1" parent="1" source="Od_H-WSa5P0MM_dKKlmE-230" target="Od_H-WSa5P0MM_dKKlmE-22">
          <mxGeometry relative="1" as="geometry" />
        </mxCell>
        <mxCell id="Od_H-WSa5P0MM_dKKlmE-230" value="PLZ" style="ellipse;whiteSpace=wrap;html=1;align=center;" vertex="1" parent="1">
          <mxGeometry x="-1100" y="250" width="100" height="40" as="geometry" />
        </mxCell>
        <mxCell id="Od_H-WSa5P0MM_dKKlmE-231" value="HAUSNR" style="ellipse;whiteSpace=wrap;html=1;align=center;" vertex="1" parent="1">
          <mxGeometry x="-1020" y="290" width="100" height="40" as="geometry" />
        </mxCell>
        <mxCell id="Od_H-WSa5P0MM_dKKlmE-232" value="STRASSE" style="ellipse;whiteSpace=wrap;html=1;align=center;" vertex="1" parent="1">
          <mxGeometry x="-870" y="150" width="100" height="40" as="geometry" />
        </mxCell>
        <mxCell id="Od_H-WSa5P0MM_dKKlmE-241" style="edgeStyle=orthogonalEdgeStyle;rounded=0;orthogonalLoop=1;jettySize=auto;html=1;exitX=0;exitY=0.5;exitDx=0;exitDy=0;entryX=1;entryY=1;entryDx=0;entryDy=0;endArrow=none;startFill=0;curved=1;" edge="1" parent="1" source="Od_H-WSa5P0MM_dKKlmE-233" target="Od_H-WSa5P0MM_dKKlmE-22">
          <mxGeometry relative="1" as="geometry" />
        </mxCell>
        <mxCell id="Od_H-WSa5P0MM_dKKlmE-233" value="STADT" style="ellipse;whiteSpace=wrap;html=1;align=center;" vertex="1" parent="1">
          <mxGeometry x="-797" y="250" width="100" height="40" as="geometry" />
        </mxCell>
        <mxCell id="Od_H-WSa5P0MM_dKKlmE-235" style="edgeStyle=orthogonalEdgeStyle;rounded=0;orthogonalLoop=1;jettySize=auto;html=1;exitX=0.5;exitY=1;exitDx=0;exitDy=0;entryX=0.25;entryY=0;entryDx=0;entryDy=0;endArrow=none;startFill=0;curved=1;" edge="1" parent="1" source="Od_H-WSa5P0MM_dKKlmE-234" target="Od_H-WSa5P0MM_dKKlmE-11">
          <mxGeometry relative="1" as="geometry" />
        </mxCell>
        <mxCell id="Od_H-WSa5P0MM_dKKlmE-234" value="Attribute" style="ellipse;whiteSpace=wrap;html=1;align=center;" vertex="1" parent="1">
          <mxGeometry x="-1245" y="-120" width="100" height="40" as="geometry" />
        </mxCell>
        <mxCell id="Od_H-WSa5P0MM_dKKlmE-236" style="edgeStyle=orthogonalEdgeStyle;rounded=0;orthogonalLoop=1;jettySize=auto;html=1;exitX=1;exitY=1;exitDx=0;exitDy=0;entryX=0.109;entryY=-0.04;entryDx=0;entryDy=0;entryPerimeter=0;endArrow=none;startFill=0;curved=1;" edge="1" parent="1" source="Od_H-WSa5P0MM_dKKlmE-227" target="Od_H-WSa5P0MM_dKKlmE-22">
          <mxGeometry relative="1" as="geometry" />
        </mxCell>
        <mxCell id="Od_H-WSa5P0MM_dKKlmE-239" style="edgeStyle=orthogonalEdgeStyle;rounded=0;orthogonalLoop=1;jettySize=auto;html=1;exitX=1;exitY=0;exitDx=0;exitDy=0;entryX=0.156;entryY=0.931;entryDx=0;entryDy=0;entryPerimeter=0;endArrow=none;startFill=0;curved=1;" edge="1" parent="1" source="Od_H-WSa5P0MM_dKKlmE-231" target="Od_H-WSa5P0MM_dKKlmE-22">
          <mxGeometry relative="1" as="geometry" />
        </mxCell>
        <mxCell id="Od_H-WSa5P0MM_dKKlmE-240" style="edgeStyle=orthogonalEdgeStyle;rounded=0;orthogonalLoop=1;jettySize=auto;html=1;exitX=0;exitY=0;exitDx=0;exitDy=0;endArrow=none;startFill=0;curved=1;" edge="1" parent="1" source="Od_H-WSa5P0MM_dKKlmE-228">
          <mxGeometry relative="1" as="geometry">
            <mxPoint x="-841" y="260" as="targetPoint" />
          </mxGeometry>
        </mxCell>
        <mxCell id="Od_H-WSa5P0MM_dKKlmE-242" style="edgeStyle=orthogonalEdgeStyle;rounded=0;orthogonalLoop=1;jettySize=auto;html=1;exitX=0.5;exitY=1;exitDx=0;exitDy=0;entryX=0.838;entryY=0.107;entryDx=0;entryDy=0;entryPerimeter=0;endArrow=none;startFill=0;curved=1;" edge="1" parent="1" source="Od_H-WSa5P0MM_dKKlmE-232" target="Od_H-WSa5P0MM_dKKlmE-22">
          <mxGeometry relative="1" as="geometry" />
        </mxCell>
        <mxCell id="Od_H-WSa5P0MM_dKKlmE-244" style="edgeStyle=orthogonalEdgeStyle;rounded=0;orthogonalLoop=1;jettySize=auto;html=1;exitX=0.5;exitY=1;exitDx=0;exitDy=0;entryX=0.5;entryY=0;entryDx=0;entryDy=0;endArrow=none;startFill=0;" edge="1" parent="1" source="Od_H-WSa5P0MM_dKKlmE-243" target="Od_H-WSa5P0MM_dKKlmE-23">
          <mxGeometry relative="1" as="geometry" />
        </mxCell>
        <mxCell id="Od_H-WSa5P0MM_dKKlmE-243" value="MITARBEITERID" style="ellipse;whiteSpace=wrap;html=1;align=center;fontStyle=4;" vertex="1" parent="1">
          <mxGeometry x="-1160" y="420" width="100" height="40" as="geometry" />
        </mxCell>
        <mxCell id="Od_H-WSa5P0MM_dKKlmE-261" style="edgeStyle=orthogonalEdgeStyle;rounded=0;orthogonalLoop=1;jettySize=auto;html=1;exitX=0.5;exitY=1;exitDx=0;exitDy=0;entryX=0.5;entryY=0;entryDx=0;entryDy=0;endArrow=none;startFill=0;curved=1;" edge="1" parent="1" source="Od_H-WSa5P0MM_dKKlmE-245" target="Od_H-WSa5P0MM_dKKlmE-259">
          <mxGeometry relative="1" as="geometry" />
        </mxCell>
        <mxCell id="Od_H-WSa5P0MM_dKKlmE-245" value="ROLLE" style="whiteSpace=wrap;html=1;align=center;" vertex="1" parent="1">
          <mxGeometry x="-1365" y="760" width="100" height="40" as="geometry" />
        </mxCell>
        <mxCell id="Od_H-WSa5P0MM_dKKlmE-266" style="edgeStyle=orthogonalEdgeStyle;rounded=0;orthogonalLoop=1;jettySize=auto;html=1;exitX=0;exitY=0.5;exitDx=0;exitDy=0;entryX=1;entryY=0.5;entryDx=0;entryDy=0;endArrow=none;startFill=0;curved=1;" edge="1" parent="1" source="Od_H-WSa5P0MM_dKKlmE-247" target="Od_H-WSa5P0MM_dKKlmE-263">
          <mxGeometry relative="1" as="geometry" />
        </mxCell>
        <mxCell id="Od_H-WSa5P0MM_dKKlmE-247" value="LOG" style="whiteSpace=wrap;html=1;align=center;" vertex="1" parent="1">
          <mxGeometry x="-950" y="760" width="100" height="40" as="geometry" />
        </mxCell>
        <mxCell id="Od_H-WSa5P0MM_dKKlmE-249" style="edgeStyle=orthogonalEdgeStyle;rounded=0;orthogonalLoop=1;jettySize=auto;html=1;exitX=0.5;exitY=1;exitDx=0;exitDy=0;entryX=0.5;entryY=0;entryDx=0;entryDy=0;endArrow=none;startFill=0;curved=1;" edge="1" parent="1" source="Od_H-WSa5P0MM_dKKlmE-248" target="Od_H-WSa5P0MM_dKKlmE-245">
          <mxGeometry relative="1" as="geometry" />
        </mxCell>
        <mxCell id="Od_H-WSa5P0MM_dKKlmE-250" style="edgeStyle=orthogonalEdgeStyle;rounded=0;orthogonalLoop=1;jettySize=auto;html=1;exitX=0.5;exitY=0;exitDx=0;exitDy=0;entryX=0.25;entryY=1;entryDx=0;entryDy=0;endArrow=none;startFill=0;curved=1;" edge="1" parent="1" source="Od_H-WSa5P0MM_dKKlmE-248" target="Od_H-WSa5P0MM_dKKlmE-23">
          <mxGeometry relative="1" as="geometry" />
        </mxCell>
        <mxCell id="Od_H-WSa5P0MM_dKKlmE-248" value="hat" style="shape=rhombus;perimeter=rhombusPerimeter;whiteSpace=wrap;html=1;align=center;" vertex="1" parent="1">
          <mxGeometry x="-1295" y="610" width="120" height="60" as="geometry" />
        </mxCell>
        <mxCell id="Od_H-WSa5P0MM_dKKlmE-253" style="edgeStyle=orthogonalEdgeStyle;rounded=0;orthogonalLoop=1;jettySize=auto;html=1;exitX=0.5;exitY=1;exitDx=0;exitDy=0;entryX=0.5;entryY=0;entryDx=0;entryDy=0;endArrow=none;startFill=0;curved=1;" edge="1" parent="1" source="Od_H-WSa5P0MM_dKKlmE-251" target="Od_H-WSa5P0MM_dKKlmE-247">
          <mxGeometry relative="1" as="geometry" />
        </mxCell>
        <mxCell id="Od_H-WSa5P0MM_dKKlmE-251" value="produziert" style="shape=rhombus;perimeter=rhombusPerimeter;whiteSpace=wrap;html=1;align=center;" vertex="1" parent="1">
          <mxGeometry x="-1040" y="610" width="120" height="60" as="geometry" />
        </mxCell>
        <mxCell id="Od_H-WSa5P0MM_dKKlmE-254" value="m" style="text;html=1;align=center;verticalAlign=middle;resizable=0;points=[];autosize=1;strokeColor=none;fillColor=none;" vertex="1" parent="1">
          <mxGeometry x="-1140" y="550" width="30" height="30" as="geometry" />
        </mxCell>
        <mxCell id="Od_H-WSa5P0MM_dKKlmE-256" value="n" style="text;html=1;align=center;verticalAlign=middle;resizable=0;points=[];autosize=1;strokeColor=none;fillColor=none;" vertex="1" parent="1">
          <mxGeometry x="-1315" y="730" width="30" height="30" as="geometry" />
        </mxCell>
        <mxCell id="Od_H-WSa5P0MM_dKKlmE-257" value="1" style="text;html=1;align=center;verticalAlign=middle;resizable=0;points=[];autosize=1;strokeColor=none;fillColor=none;" vertex="1" parent="1">
          <mxGeometry x="-1075" y="550" width="30" height="30" as="geometry" />
        </mxCell>
        <mxCell id="Od_H-WSa5P0MM_dKKlmE-258" value="n" style="text;html=1;align=center;verticalAlign=middle;resizable=0;points=[];autosize=1;strokeColor=none;fillColor=none;" vertex="1" parent="1">
          <mxGeometry x="-905" y="730" width="30" height="30" as="geometry" />
        </mxCell>
        <mxCell id="Od_H-WSa5P0MM_dKKlmE-259" value="ROLLEID" style="ellipse;whiteSpace=wrap;html=1;align=center;fontStyle=4;" vertex="1" parent="1">
          <mxGeometry x="-1365" y="840" width="100" height="40" as="geometry" />
        </mxCell>
        <mxCell id="Od_H-WSa5P0MM_dKKlmE-262" style="edgeStyle=orthogonalEdgeStyle;rounded=0;orthogonalLoop=1;jettySize=auto;html=1;exitX=1;exitY=0.5;exitDx=0;exitDy=0;endArrow=none;startFill=0;curved=1;" edge="1" parent="1" source="Od_H-WSa5P0MM_dKKlmE-260" target="Od_H-WSa5P0MM_dKKlmE-245">
          <mxGeometry relative="1" as="geometry" />
        </mxCell>
        <mxCell id="Od_H-WSa5P0MM_dKKlmE-260" value="NAME" style="ellipse;whiteSpace=wrap;html=1;align=center;" vertex="1" parent="1">
          <mxGeometry x="-1520" y="760" width="100" height="40" as="geometry" />
        </mxCell>
        <mxCell id="Od_H-WSa5P0MM_dKKlmE-263" value="AKTION" style="ellipse;whiteSpace=wrap;html=1;align=center;" vertex="1" parent="1">
          <mxGeometry x="-1100" y="760" width="100" height="40" as="geometry" />
        </mxCell>
        <mxCell id="Od_H-WSa5P0MM_dKKlmE-268" style="edgeStyle=orthogonalEdgeStyle;rounded=0;orthogonalLoop=1;jettySize=auto;html=1;exitX=0;exitY=0.5;exitDx=0;exitDy=0;entryX=1;entryY=0.5;entryDx=0;entryDy=0;endArrow=none;startFill=0;" edge="1" parent="1" source="Od_H-WSa5P0MM_dKKlmE-264" target="Od_H-WSa5P0MM_dKKlmE-247">
          <mxGeometry relative="1" as="geometry" />
        </mxCell>
        <mxCell id="Od_H-WSa5P0MM_dKKlmE-264" value="LOGID" style="ellipse;whiteSpace=wrap;html=1;align=center;fontStyle=4;" vertex="1" parent="1">
          <mxGeometry x="-787" y="760" width="100" height="40" as="geometry" />
        </mxCell>
        <mxCell id="Od_H-WSa5P0MM_dKKlmE-265" value="TIMESTAMP" style="ellipse;whiteSpace=wrap;html=1;align=center;" vertex="1" parent="1">
          <mxGeometry x="-830" y="680" width="100" height="40" as="geometry" />
        </mxCell>
        <mxCell id="Od_H-WSa5P0MM_dKKlmE-267" style="edgeStyle=orthogonalEdgeStyle;rounded=0;orthogonalLoop=1;jettySize=auto;html=1;exitX=0;exitY=0.5;exitDx=0;exitDy=0;entryX=0.864;entryY=0.061;entryDx=0;entryDy=0;entryPerimeter=0;endArrow=none;startFill=0;curved=1;" edge="1" parent="1" source="Od_H-WSa5P0MM_dKKlmE-265" target="Od_H-WSa5P0MM_dKKlmE-247">
          <mxGeometry relative="1" as="geometry" />
        </mxCell>
      </root>
    </mxGraphModel>
  </diagram>
</mxfile>
